HIERARCHY
ROOT hip
{
  OFFSET 0 90.174 2.4664
  CHANNELS 6 Xposition Yposition Zposition Zrotation Xrotation Yrotation
  JOINT abdomen
  {
    OFFSET 0 -1.186 -1.5018
    CHANNELS 6 Xposition Yposition Zposition Zrotation Xrotation Yrotation
    JOINT abdomen2
    {
      OFFSET 0 9.964 0.2134
      CHANNELS 6 Xposition Yposition Zposition Zrotation Xrotation Yrotation
      JOINT chest
      {
        OFFSET 0 13.134 -3.2573
        CHANNELS 6 Xposition Yposition Zposition Zrotation Xrotation Yrotation
        JOINT neck
        {
          OFFSET 0 20.686 -1.6905
          CHANNELS 6 Xposition Yposition Zposition Zrotation Xrotation Yrotation
          JOINT head
          {
            OFFSET 0 7.238 -0.1237
            CHANNELS 6 Xposition Yposition Zposition Zrotation Xrotation Yrotation
            End Site
            {
              OFFSET 0 0 0
            }
          }
        }
        JOINT lCollar
        {
          OFFSET 1.7069 20.075 5.0056
          CHANNELS 6 Xposition Yposition Zposition Zrotation Xrotation Yrotation
          JOINT lShldr
          {
            OFFSET 13.6458 -0.047 -4.849
            CHANNELS 6 Xposition Yposition Zposition Zrotation Xrotation Yrotation
            JOINT lForeArm
            {
              OFFSET 28.3255 -0.9759 2.2888
              CHANNELS 6 Xposition Yposition Zposition Zrotation Xrotation Yrotation
              JOINT lHand
              {
                OFFSET 22.1583 -0.53 10.8316
                CHANNELS 6 Xposition Yposition Zposition Zrotation Xrotation Yrotation
                JOINT lThumb1
                {
                  OFFSET 0.786 0.112 2.5817
                  CHANNELS 6 Xposition Yposition Zposition Zrotation Xrotation Yrotation
                  JOINT lThumb2
                  {
                    OFFSET 0.3601 -0.878 4.2331
                    CHANNELS 6 Xposition Yposition Zposition Zrotation Xrotation Yrotation
                    JOINT lThumb2_End
                    {
                      OFFSET 1.8127 -1.216 2.2227
                      CHANNELS 6 Xposition Yposition Zposition Zrotation Xrotation Yrotation
                      End Site
                      {
                        OFFSET 0.0181 -0.0122 0.0222
                      }
                    }
                  }
                }
                JOINT lCarpal1
                {
                  OFFSET 0.9571 1.114 1.7695
                  CHANNELS 6 Xposition Yposition Zposition Zrotation Xrotation Yrotation
                  JOINT lIndex1
                  {
                    OFFSET 4.1246 0.487 4.1451
                    CHANNELS 6 Xposition Yposition Zposition Zrotation Xrotation Yrotation
                    JOINT lIndex2
                    {
                      OFFSET 3.4052 -1.454 2.7682
                      CHANNELS 6 Xposition Yposition Zposition Zrotation Xrotation Yrotation
                      JOINT lIndex2_End
                      {
                        OFFSET 1.4531 -1.795 1.2713
                        CHANNELS 6 Xposition Yposition Zposition Zrotation Xrotation Yrotation
                        End Site
                        {
                          OFFSET 0.0145 -0.0179 0.0127
                        }
                      }
                    }
                  }
                  JOINT lMid1
                  {
                    OFFSET 5.6954 0.21 2.1184
                    CHANNELS 6 Xposition Yposition Zposition Zrotation Xrotation Yrotation
                    JOINT lMid2
                    {
                      OFFSET 3.9766 -1.54 2.3863
                      CHANNELS 6 Xposition Yposition Zposition Zrotation Xrotation Yrotation
                      JOINT lMid2_End
                      {
                        OFFSET 1.4042 -1.926 1.125
                        CHANNELS 6 Xposition Yposition Zposition Zrotation Xrotation Yrotation
                        End Site
                        {
                          OFFSET 0.014 -0.0193 0.0113
                        }
                      }
                    }
                  }
                }
                JOINT lCarpal2
                {
                  OFFSET 2.0956 0.66 -0.3894
                  CHANNELS 6 Xposition Yposition Zposition Zrotation Xrotation Yrotation
                  JOINT lRing1
                  {
                    OFFSET 5.0395 -0.09 2.4971
                    CHANNELS 6 Xposition Yposition Zposition Zrotation Xrotation Yrotation
                    JOINT lRing2
                    {
                      OFFSET 3.7921 -1.552 1.4806
                      CHANNELS 6 Xposition Yposition Zposition Zrotation Xrotation Yrotation
                      JOINT lRing2_End
                      {
                        OFFSET 1.4655 -1.808 0.9609
                        CHANNELS 6 Xposition Yposition Zposition Zrotation Xrotation Yrotation
                        End Site
                        {
                          OFFSET 0.0147 -0.0181 0.0096
                        }
                      }
                    }
                  }
                  JOINT lPinky1
                  {
                    OFFSET 4.9141 -1.269 0.3591
                    CHANNELS 6 Xposition Yposition Zposition Zrotation Xrotation Yrotation
                    JOINT lPinky2
                    {
                      OFFSET 3.1477 -1.685 0.8462
                      CHANNELS 6 Xposition Yposition Zposition Zrotation Xrotation Yrotation
                      JOINT lPinky2_End
                      {
                        OFFSET 0.8055 -1.585 0.7955
                        CHANNELS 6 Xposition Yposition Zposition Zrotation Xrotation Yrotation
                        End Site
                        {
                          OFFSET 0.0081 -0.0158 0.008
                        }
                      }
                    }
                  }
                }
              }
            }
          }
        }
        JOINT rCollar
        {
          OFFSET -1.7069 20.075 5.0056
          CHANNELS 6 Xposition Yposition Zposition Zrotation Xrotation Yrotation
          JOINT rShldr
          {
            OFFSET -13.6458 -0.047 -4.849
            CHANNELS 6 Xposition Yposition Zposition Zrotation Xrotation Yrotation
            JOINT rForeArm
            {
              OFFSET -28.3255 -0.9759 2.2888
              CHANNELS 6 Xposition Yposition Zposition Zrotation Xrotation Yrotation
              JOINT rHand
              {
                OFFSET -22.1583 -0.53 10.8316
                CHANNELS 6 Xposition Yposition Zposition Zrotation Xrotation Yrotation
                JOINT rThumb1
                {
                  OFFSET -0.786 0.112 2.5817
                  CHANNELS 6 Xposition Yposition Zposition Zrotation Xrotation Yrotation
                  JOINT rThumb2
                  {
                    OFFSET -0.3601 -0.878 4.2331
                    CHANNELS 6 Xposition Yposition Zposition Zrotation Xrotation Yrotation
                    JOINT rThumb2_End
                    {
                      OFFSET -1.8127 -1.216 2.2227
                      CHANNELS 6 Xposition Yposition Zposition Zrotation Xrotation Yrotation
                      End Site
                      {
                        OFFSET -0.0181 -0.0122 0.0222
                      }
                    }
                  }
                }
                JOINT rCarpal1
                {
                  OFFSET -0.9571 1.114 1.7695
                  CHANNELS 6 Xposition Yposition Zposition Zrotation Xrotation Yrotation
                  JOINT rIndex1
                  {
                    OFFSET -4.1246 0.487 4.1451
                    CHANNELS 6 Xposition Yposition Zposition Zrotation Xrotation Yrotation
                    JOINT rIndex2
                    {
                      OFFSET -3.4052 -1.454 2.7682
                      CHANNELS 6 Xposition Yposition Zposition Zrotation Xrotation Yrotation
                      JOINT rIndex2_End
                      {
                        OFFSET -1.4531 -1.795 1.2713
                        CHANNELS 6 Xposition Yposition Zposition Zrotation Xrotation Yrotation
                        End Site
                        {
                          OFFSET -0.0145 -0.018 0.0127
                        }
                      }
                    }
                  }
                  JOINT rMid1
                  {
                    OFFSET -5.6954 0.21 2.1184
                    CHANNELS 6 Xposition Yposition Zposition Zrotation Xrotation Yrotation
                    JOINT rMid2
                    {
                      OFFSET -3.9766 -1.54 2.3863
                      CHANNELS 6 Xposition Yposition Zposition Zrotation Xrotation Yrotation
                      JOINT rMid2_End
                      {
                        OFFSET -1.4042 -1.926 1.125
                        CHANNELS 6 Xposition Yposition Zposition Zrotation Xrotation Yrotation
                        End Site
                        {
                          OFFSET -0.014 -0.0193 0.0113
                        }
                      }
                    }
                  }
                }
                JOINT rCarpal2
                {
                  OFFSET -2.0956 0.66 -0.3894
                  CHANNELS 6 Xposition Yposition Zposition Zrotation Xrotation Yrotation
                  JOINT rRing1
                  {
                    OFFSET -5.0395 -0.09 2.4971
                    CHANNELS 6 Xposition Yposition Zposition Zrotation Xrotation Yrotation
                    JOINT rRing2
                    {
                      OFFSET -3.7921 -1.552 1.4806
                      CHANNELS 6 Xposition Yposition Zposition Zrotation Xrotation Yrotation
                      JOINT rRing2_End
                      {
                        OFFSET -1.4655 -1.808 0.9609
                        CHANNELS 6 Xposition Yposition Zposition Zrotation Xrotation Yrotation
                        End Site
                        {
                          OFFSET -0.0147 -0.0181 0.0096
                        }
                      }
                    }
                  }
                  JOINT rPinky1
                  {
                    OFFSET -4.9141 -1.269 0.3592
                    CHANNELS 6 Xposition Yposition Zposition Zrotation Xrotation Yrotation
                    JOINT rPinky2
                    {
                      OFFSET -3.1477 -1.685 0.8462
                      CHANNELS 6 Xposition Yposition Zposition Zrotation Xrotation Yrotation
                      JOINT rPinky2_End
                      {
                        OFFSET -0.8055 -1.585 0.7955
                        CHANNELS 6 Xposition Yposition Zposition Zrotation Xrotation Yrotation
                        End Site
                        {
                          OFFSET -0.0081 -0.0158 0.008
                        }
                      }
                    }
                  }
                }
              }
            }
          }
        }
      }
    }
  }
  JOINT lThigh
  {
    OFFSET 8.367 -8.2066 0.5982
    CHANNELS 6 Xposition Yposition Zposition Zrotation Xrotation Yrotation
    JOINT lShin
    {
      OFFSET 2.1923 -43.463 -0.4932
      CHANNELS 6 Xposition Yposition Zposition Zrotation Xrotation Yrotation
      JOINT lFoot
      {
        OFFSET 0.7333 -45.8593 -2.6451
        CHANNELS 6 Xposition Yposition Zposition Zrotation Xrotation Yrotation
        End Site
        {
          OFFSET 2.6618 -4.2699 12.3931
        }
      }
    }
  }
  JOINT rThigh
  {
    OFFSET -8.367 -8.2066 0.5982
    CHANNELS 6 Xposition Yposition Zposition Zrotation Xrotation Yrotation
    JOINT rShin
    {
      OFFSET -2.1923 -43.463 -0.4931
      CHANNELS 6 Xposition Yposition Zposition Zrotation Xrotation Yrotation
      JOINT rFoot
      {
        OFFSET -0.7333 -45.8593 -2.6451
        CHANNELS 6 Xposition Yposition Zposition Zrotation Xrotation Yrotation
        End Site
        {
          OFFSET -2.6618 -4.2699 12.3931
        }
      }
    }
  }
}
MOTION
Frames:	4
Frame Time:	0.0333333
-0.849958 0.582272 -7.37182 -180 -84.6892 -180 0 -1.186 -1.5018 0.142584 0.170254 -0.300635 0 9.964 0.2134 0.28606 0.339761 -0.601697 0 13.134 -3.2573 0.28606 0.339764 -0.601697 -1.11022e-016 20.686 -1.6905 16.2751 -0.960823 0.27888 -1.77636e-015 7.238 -0.1237 10.9999 -0.466442 0.0904749 1.7069 20.075 5.0056 0.526225 -0.425774 0.9167 13.6458 -0.047 -4.849 -77.7949 2.01004 -8.59652 28.3255 -0.9759 2.2888 0.53785 8.50885 -37.7687 22.1583 -0.53 10.8316 -44.1882 17.1411 19.7117 0.786 0.112 2.5817 2.18663e-015 1.68967e-015 6.36111e-015 0.3601 -0.878 4.2331 3.86217e-032 -6.95746e-016 3.18055e-015 1.8127 -1.216 2.2227 1.98785e-016 6.26172e-015 9.54166e-015 0.9571 1.114 1.7695 3.77691e-015 1.49089e-015 3.18055e-015 4.1246 0.487 4.1451 3.37934e-015 -1.98785e-016 1.27222e-014 3.4052 -1.454 2.7682 -9.93923e-016 -2.78299e-015 -0 1.4531 -1.795 1.2713 1.98785e-016 4.17448e-015 6.36111e-015 5.6954 0.21 2.1184 3.37934e-015 -1.98785e-016 1.27222e-014 3.9766 -1.54 2.3863 -9.93923e-016 -2.78299e-015 -0 1.4042 -1.926 1.125 1.98785e-016 4.17448e-015 6.36111e-015 2.0956 0.66 -0.3894 3.77691e-015 1.49089e-015 3.18055e-015 5.0395 -0.09 2.4971 3.37934e-015 -1.98785e-016 1.27222e-014 3.7921 -1.552 1.4806 -9.93923e-016 -2.78299e-015 -0 1.4655 -1.808 0.9609 1.98785e-016 4.17448e-015 6.36111e-015 4.9141 -1.269 0.3591 3.37934e-015 -1.98785e-016 1.27222e-014 3.1477 -1.685 0.8462 -9.93923e-016 -2.78299e-015 -0 0.8055 -1.585 0.7955 1.98785e-016 4.17448e-015 6.36111e-015 -1.7069 20.075 5.0056 -20.313 -13.2247 7.63518 -13.6458 -0.047 -4.849 70.8864 -0.583352 17.4472 -28.3255 -0.9759 2.2888 3.60768 18.1432 63.8758 -22.1583 -0.53 10.8316 57.9135 9.60042 8.69013 -0.786 0.112 2.5817 3.95798e-007 1.28661e-007 9.19744e-008 -0.3601 -0.878 4.2331 3.18055e-015 -3.18055e-015 9.54166e-015 -1.8127 -1.216 2.2227 -1.59028e-015 -6.36111e-015 9.54166e-015 -0.9571 1.114 1.7695 -1.76556e-031 3.18055e-015 3.18055e-015 -4.1246 0.487 4.1451 3.95798e-007 1.28661e-007 9.19744e-008 -3.4052 -1.454 2.7682 -1.11319e-014 -3.18055e-015 1.27222e-014 -1.4531 -1.795 1.2713 3.18055e-015 0 -3.18055e-015 -5.6954 0.21 2.1184 3.95798e-007 1.28661e-007 9.19744e-008 -3.9766 -1.54 2.3863 -1.11319e-014 -3.18055e-015 1.27222e-014 -1.4042 -1.926 1.125 3.18055e-015 0 -3.18055e-015 -2.0956 0.66 -0.3894 -1.76556e-031 3.18055e-015 3.18055e-015 -5.0395 -0.09 2.4971 3.95798e-007 1.28661e-007 9.19744e-008 -3.7921 -1.552 1.4806 -1.11319e-014 -3.18055e-015 1.27222e-014 -1.4655 -1.808 0.9609 3.18055e-015 0 -3.18055e-015 -4.9141 -1.269 0.3592 3.95798e-007 1.28661e-007 9.19744e-008 -3.1477 -1.685 0.8462 -1.11319e-014 -3.18055e-015 1.27222e-014 -0.8055 -1.585 0.7955 3.18055e-015 0 -3.18055e-015 8.367 -8.2066 0.5982 10.5257 -28.4253 13.0306 2.1923 -43.463 -0.4932 -64.9469 77.0754 73.5048 0.7333 -45.8593 -2.6451 -1.86512 31.1945 7.53841 -8.367 -8.2066 0.5982 -12.368 -27.0779 -9.17284 -2.1923 -43.463 -0.4931 45.4354 73.1119 -54.5841 -0.7333 -45.8593 -2.6451 4.91231 37.2534 -6.36083 
-0.85005 0.445009 -7.42456 -180 -84.3885 -180 0 -1.186 -1.5018 0.141201 0.215682 -0.299151 -1.11022e-016 9.964 0.2134 0.283529 0.430607 -0.598838 1.11022e-016 13.134 -3.2573 0.283529 0.430623 -0.598838 0 20.686 -1.6905 16.0501 -0.961966 0.274791 -1.77636e-015 7.238 -0.1237 10.9999 -0.441882 0.0857126 1.7069 20.075 5.0056 0.414584 -0.629322 0.765126 13.6458 -0.047 -4.849 -77.7949 2.01001 -8.59651 28.3255 -0.9759 2.2888 0.546776 8.47045 -37.1314 22.1583 -0.53 10.8316 -44.1507 17.2817 19.5623 0.786 0.112 2.5817 2.78299e-015 1.05356e-014 3.18055e-015 0.3601 -0.878 4.2331 4.37326e-015 -5.26779e-015 9.54166e-015 1.8127 -1.216 2.2227 6.16232e-015 -4.96962e-015 -0 0.9571 1.114 1.7695 2.78299e-015 8.94531e-015 3.18055e-015 4.1246 0.487 4.1451 7.95139e-015 -2.18663e-015 1.27222e-014 3.4052 -1.454 2.7682 2.78299e-015 -9.93923e-016 3.18055e-015 1.4531 -1.795 1.2713 1.59028e-015 6.26172e-015 3.18055e-015 5.6954 0.21 2.1184 7.95139e-015 -2.18663e-015 1.27222e-014 3.9766 -1.54 2.3863 2.78299e-015 -9.93923e-016 3.18055e-015 1.4042 -1.926 1.125 1.59028e-015 6.26172e-015 3.18055e-015 2.0956 0.66 -0.3894 2.78299e-015 8.94531e-015 3.18055e-015 5.0395 -0.09 2.4971 7.95139e-015 -2.18663e-015 1.27222e-014 3.7921 -1.552 1.4806 2.78299e-015 -9.93923e-016 3.18055e-015 1.4655 -1.808 0.9609 1.59028e-015 6.26172e-015 3.18055e-015 4.9141 -1.269 0.3591 7.95139e-015 -2.18663e-015 1.27222e-014 3.1477 -1.685 0.8462 2.78299e-015 -9.93923e-016 3.18055e-015 0.8055 -1.585 0.7955 1.59028e-015 6.26172e-015 3.18055e-015 -1.7069 20.075 5.0056 -20.0168 -12.8571 8.00648 -13.6458 -0.047 -4.849 70.6585 -0.718939 17.5051 -28.3255 -0.9759 2.2888 3.58752 17.9921 63.7197 -22.1583 -0.53 10.8316 58.016 10.038 8.7897 -0.786 0.112 2.5817 -1.43125e-014 -1.27222e-014 -6.36111e-015 -0.3601 -0.878 4.2331 -3.95861e-007 -1.28418e-007 -9.23079e-008 -1.8127 -1.216 2.2227 4.77083e-015 -3.18055e-015 -3.18055e-015 -0.9571 1.114 1.7695 1.59028e-015 -3.18055e-015 3.18055e-015 -4.1246 0.487 4.1451 -1.74931e-014 -1.27222e-014 -1.59028e-014 -3.4052 -1.454 2.7682 -3.95861e-007 -1.28418e-007 -9.23079e-008 -1.4531 -1.795 1.2713 -0 0 3.18055e-015 -5.6954 0.21 2.1184 -1.74931e-014 -1.27222e-014 -1.59028e-014 -3.9766 -1.54 2.3863 -3.95861e-007 -1.28418e-007 -9.23079e-008 -1.4042 -1.926 1.125 -0 0 3.18055e-015 -2.0956 0.66 -0.3894 1.59028e-015 -3.18055e-015 3.18055e-015 -5.0395 -0.09 2.4971 -1.74931e-014 -1.27222e-014 -1.59028e-014 -3.7921 -1.552 1.4806 -3.95861e-007 -1.28418e-007 -9.23079e-008 -1.4655 -1.808 0.9609 -0 0 3.18055e-015 -4.9141 -1.269 0.3592 -1.74931e-014 -1.27222e-014 -1.59028e-014 -3.1477 -1.685 0.8462 -3.95861e-007 -1.28418e-007 -9.23079e-008 -0.8055 -1.585 0.7955 -0 0 3.18055e-015 8.367 -8.2066 0.5982 10.531 -28.176 13.031 2.1923 -43.463 -0.4932 -64.9499 77.0758 73.5103 0.7333 -45.8593 -2.6451 -1.79634 31.3211 7.53253 -8.367 -8.2066 0.5982 -12.4314 -26.8005 -9.25953 -2.1923 -43.463 -0.4931 45.4355 73.1121 -54.5865 -0.7333 -45.8593 -2.6451 4.7248 37.386 -6.25932 
-0.850157 0.307705 -7.47717 -180 -84.0878 -180 0 -1.186 -1.5018 0.139893 0.261169 -0.297772 0 9.964 0.2134 0.281147 0.521648 -0.59619 0 13.134 -3.2573 0.281147 0.521638 -0.59619 -1.11022e-016 20.686 -1.6905 15.8248 -0.963203 0.271403 1.77636e-015 7.238 -0.1237 10.9998 -0.417322 0.0809461 1.7069 20.075 5.0056 0.302132 -0.83301 0.613741 13.6458 -0.047 -4.849 -77.7949 2.01002 -8.59651 28.3255 -0.9759 2.2888 0.556134 8.43213 -36.4943 22.1583 -0.53 10.8316 -44.1128 17.4223 19.4127 0.786 0.112 2.5817 -2.18663e-015 3.97569e-015 -0 0.3601 -0.878 4.2331 -2.59036e-006 -2.7874e-007 -2.78134e-006 1.8127 -1.216 2.2227 2.38542e-015 -2.89232e-014 -0 0.9571 1.114 1.7695 9.93923e-016 4.67144e-015 -0 4.1246 0.487 4.1451 -5.56597e-015 1.49089e-015 -0 3.4052 -1.454 2.7682 -2.59036e-006 -2.7874e-007 -2.78134e-006 1.4531 -1.795 1.2713 1.19271e-015 -2.80286e-014 -0 5.6954 0.21 2.1184 -5.56597e-015 1.49089e-015 -0 3.9766 -1.54 2.3863 -2.59036e-006 -2.7874e-007 -2.78134e-006 1.4042 -1.926 1.125 1.19271e-015 -2.80286e-014 -0 2.0956 0.66 -0.3894 9.93923e-016 4.67144e-015 -0 5.0395 -0.09 2.4971 -5.56597e-015 1.49089e-015 -0 3.7921 -1.552 1.4806 -2.59036e-006 -2.7874e-007 -2.78134e-006 1.4655 -1.808 0.9609 1.19271e-015 -2.80286e-014 -0 4.9141 -1.269 0.3591 -5.56597e-015 1.49089e-015 -0 3.1477 -1.685 0.8462 -2.59036e-006 -2.7874e-007 -2.78134e-006 0.8055 -1.585 0.7955 1.19271e-015 -2.80286e-014 -0 -1.7069 20.075 5.0056 -19.7236 -12.4883 8.37569 -13.6458 -0.047 -4.849 70.4307 -0.854715 17.5624 -28.3255 -0.9759 2.2888 3.56693 17.841 63.5636 -22.1583 -0.53 10.8316 58.1179 10.4758 8.88861 -0.786 0.112 2.5817 3.9592e-007 1.28173e-007 9.2643e-008 -0.3601 -0.878 4.2331 2.40698e-007 2.0045e-006 -2.06616e-006 -1.8127 -1.216 2.2227 -8.70165e-007 1.29104e-006 2.33191e-006 -0.9571 1.114 1.7695 1.59028e-015 -3.18055e-015 -3.18055e-015 -4.1246 0.487 4.1451 3.9592e-007 1.28173e-007 9.2643e-008 -3.4052 -1.454 2.7682 2.40698e-007 2.0045e-006 -2.06616e-006 -1.4531 -1.795 1.2713 -8.70165e-007 1.29104e-006 2.33191e-006 -5.6954 0.21 2.1184 3.9592e-007 1.28173e-007 9.2643e-008 -3.9766 -1.54 2.3863 2.40698e-007 2.0045e-006 -2.06616e-006 -1.4042 -1.926 1.125 -8.70165e-007 1.29104e-006 2.33191e-006 -2.0956 0.66 -0.3894 1.59028e-015 -3.18055e-015 -3.18055e-015 -5.0395 -0.09 2.4971 3.9592e-007 1.28173e-007 9.2643e-008 -3.7921 -1.552 1.4806 2.40698e-007 2.0045e-006 -2.06616e-006 -1.4655 -1.808 0.9609 -8.70165e-007 1.29104e-006 2.33191e-006 -4.9141 -1.269 0.3592 3.9592e-007 1.28173e-007 9.2643e-008 -3.1477 -1.685 0.8462 2.40698e-007 2.0045e-006 -2.06616e-006 -0.8055 -1.585 0.7955 -8.70165e-007 1.29104e-006 2.33191e-006 8.367 -8.2066 0.5982 10.5363 -27.9268 13.0315 2.1923 -43.463 -0.4932 -64.9537 77.0764 73.5166 0.7333 -45.8593 -2.6451 -1.72744 31.4478 7.52646 -8.367 -8.2066 0.5982 -12.4942 -26.523 -9.34573 -2.1923 -43.463 -0.4931 45.4353 73.1123 -54.5885 -0.7333 -45.8593 -2.6451 4.53667 37.5185 -6.15707 
-0.850278 0.170351 -7.52965 -180 -83.7872 -180 0 -1.186 -1.5018 0.138558 0.306576 -0.296279 0 9.964 0.2134 0.278705 0.612417 -0.593311 0 13.134 -3.2573 0.278705 0.612436 -0.593311 -2.22045e-016 20.686 -1.6905 15.5997 -0.964145 0.267388 0 7.238 -0.1237 10.9998 -0.392777 0.0761916 1.7069 20.075 5.0056 0.189373 -1.03593 0.461438 13.6458 -0.047 -4.849 -77.7949 2.01004 -8.59653 28.3255 -0.9759 2.2888 0.56592 8.39392 -35.8574 22.1583 -0.53 10.8316 -44.0745 17.5627 19.263 0.786 0.112 2.5817 -2.18663e-015 -8.94531e-015 6.36111e-015 0.3601 -0.878 4.2331 -4.09077e-007 1.03144e-006 -9.42211e-007 1.8127 -1.216 2.2227 -1.37007e-006 1.06204e-007 -2.28533e-006 0.9571 1.114 1.7695 -5.96354e-016 -7.65321e-015 6.36111e-015 4.1246 0.487 4.1451 -5.76476e-015 -3.08116e-015 -0 3.4052 -1.454 2.7682 -4.09077e-007 1.03144e-006 -9.42211e-007 1.4531 -1.795 1.2713 -1.37007e-006 1.06204e-007 -2.28533e-006 5.6954 0.21 2.1184 -5.76476e-015 -3.08116e-015 -0 3.9766 -1.54 2.3863 -4.09077e-007 1.03144e-006 -9.42211e-007 1.4042 -1.926 1.125 -1.37007e-006 1.06204e-007 -2.28533e-006 2.0956 0.66 -0.3894 -5.96354e-016 -7.65321e-015 6.36111e-015 5.0395 -0.09 2.4971 -5.76476e-015 -3.08116e-015 -0 3.7921 -1.552 1.4806 -4.09077e-007 1.03144e-006 -9.42211e-007 1.4655 -1.808 0.9609 -1.37007e-006 1.06204e-007 -2.28533e-006 4.9141 -1.269 0.3591 -5.76476e-015 -3.08116e-015 -0 3.1477 -1.685 0.8462 -4.09077e-007 1.03144e-006 -9.42211e-007 0.8055 -1.585 0.7955 -1.37007e-006 1.06204e-007 -2.28533e-006 -1.7069 20.075 5.0056 -19.4332 -12.1171 8.74204 -13.6458 -0.047 -4.849 70.203 -0.990756 17.6191 -28.3255 -0.9759 2.2888 3.54594 17.6899 63.4076 -22.1583 -0.53 10.8316 58.2191 10.9137 8.98686 -0.786 0.112 2.5817 -1.74931e-014 -9.54166e-015 -6.36111e-015 -0.3601 -0.878 4.2331 -5.11709e-007 1.58391e-006 8.23498e-008 -1.8127 -1.216 2.2227 3.18055e-015 0 6.36111e-015 -0.9571 1.114 1.7695 -1.59028e-015 9.54166e-015 3.18055e-015 -4.1246 0.487 4.1451 -1.11319e-014 -9.54166e-015 -9.54166e-015 -3.4052 -1.454 2.7682 -5.11709e-007 1.58391e-006 8.23498e-008 -1.4531 -1.795 1.2713 1.59028e-015 -3.18055e-015 6.36111e-015 -5.6954 0.21 2.1184 -1.11319e-014 -9.54166e-015 -9.54166e-015 -3.9766 -1.54 2.3863 -5.11709e-007 1.58391e-006 8.23498e-008 -1.4042 -1.926 1.125 1.59028e-015 -3.18055e-015 6.36111e-015 -2.0956 0.66 -0.3894 -1.59028e-015 9.54166e-015 3.18055e-015 -5.0395 -0.09 2.4971 -1.11319e-014 -9.54166e-015 -9.54166e-015 -3.7921 -1.552 1.4806 -5.11709e-007 1.58391e-006 8.23498e-008 -1.4655 -1.808 0.9609 1.59028e-015 -3.18055e-015 6.36111e-015 -4.9141 -1.269 0.3592 -1.11319e-014 -9.54166e-015 -9.54166e-015 -3.1477 -1.685 0.8462 -5.11709e-007 1.58391e-006 8.23498e-008 -0.8055 -1.585 0.7955 1.59028e-015 -3.18055e-015 6.36111e-015 8.367 -8.2066 0.5982 10.5417 -27.6774 13.0319 2.1923 -43.463 -0.4932 -64.9563 77.0768 73.5215 0.7333 -45.8593 -2.6451 -1.65849 31.5745 7.52023 -8.367 -8.2066 0.5982 -12.5566 -26.2448 -9.43143 -2.1923 -43.463 -0.4931 45.4343 73.1121 -54.5893 -0.7333 -45.8593 -2.6451 4.34793 37.6506 -6.05411 
